<?xml version="1.0" encoding="iso-8859-1"?>
<!-- Generator: Adobe Illustrator 17.1.0, SVG Export Plug-In . SVG Version: 6.00 Build 0)  -->
<!DOCTYPE svg PUBLIC "-//W3C//DTD SVG 1.1//EN" "http://www.w3.org/Graphics/SVG/1.1/DTD/svg11.dtd">
<svg version="1.1" id="Layer_1" xmlns="http://www.w3.org/2000/svg" xmlns:xlink="http://www.w3.org/1999/xlink" x="0px" y="0px"
	 width="400px" height="400px" viewBox="0 0 400 400" style="enable-background:new 0 0 400 400;" xml:space="preserve">
<path style="fill:#FFFFFF;" d="M120.187,381.971c-23.269,0-46.655-11.798-64.16-32.371c-17.763-20.876-26.584-47.499-23.02-69.479
	c5.171-31.893,33.002-45.131,47.953-52.242c1.585-0.755,3.005-1.429,4.182-2.027l-0.309-3.133l14.178-12.617
	c0,0,3.705,0.506,3.705,0.506c0.004,0,1.05,0.122,2.755,0.122c5.371,0,15.669-1.146,24.293-8.822
	c11.305-10.06,9.865-22.973,9.848-23.1l-0.599-4.302l8.041-7.155l-9.495-12.383c-5.219,4.764-10.703,11.247-15.759,18.665
	c-4.855,7.102-7.744,12.684-7.772,12.74l-5.691,11.108l-11.639-4.501c-1.066-0.415-6.691-2.711-14.49-7.837
	c-10.557-6.942-20.015-15.655-28.113-25.9c-8.098-10.248-14.39-21.465-18.701-33.338c-3.184-8.772-4.119-14.775-4.274-15.889
	l-1.757-12.858l12.804-2.634l0.605-0.139c0.591-0.14,1.488-0.363,2.628-0.675c2.15-0.588,5.558-1.604,9.587-3.101
	c6.373-2.361,15.373-6.336,23.558-12.256c0.439-2.201,1.117-4.316,2.03-6.317c1.853-4.075,4.685-7.693,8.187-10.456l2.955-2.336
	c4.957-3.927,11.232-6.093,17.66-6.093c0.344,0.001,0.687,0.007,1.03,0.019c7.602-6.56,13.608-14.372,17.448-20.021
	c4.736-6.953,7.336-12.272,7.362-12.325l5.541-11.525l11.938,4.616c1.067,0.415,6.691,2.711,14.49,7.837
	c10.557,6.941,20.015,15.655,28.113,25.9c8.097,10.248,14.389,21.464,18.701,33.338c3.167,8.724,4.115,14.756,4.273,15.877
	l1.674,12.269l-12.134,3.107l-0.746,0.204c-0.682,0.192-1.702,0.486-2.984,0.882c-2.381,0.735-6.123,1.962-10.438,3.637
	c-4.454,1.723-11.83,4.85-18.752,9.035l14.033,16.978c6.701-2.398,13.142-3.61,19.213-3.61c1.944,0,3.866,0.128,5.711,0.381
	c11.229,1.541,20.553,7.203,27.547,12.676l59.735-50.345c0.541-3.034,2.191-5.854,4.134-8.303c-0.249-0.261-0.49-0.521-0.722-0.779
	c-8.712-9.686-3.496-16.27-0.849-18.651c1.759-1.584,3.681-2.567,5.73-2.936c-0.161-4.261,2.374-7.232,3.972-8.669
	c2.289-2.059,4.847-3.102,7.606-3.102c4.125,0,7.316,2.335,9.587,4.581c3.919-3.312,8.873-5.129,14.013-5.129
	c6.198,0,12.116,2.654,16.234,7.283l9.546,10.728c7.764,8.725,7.195,22.023-1.132,30.063c7.536,9.161,2.579,15.408,0.02,17.709
	c-2.289,2.059-4.847,3.122-7.606,3.122h-0.001c-0.487,0-0.961-0.053-1.424-0.114c-0.506,1.745-1.552,3.625-3.535,5.408
	c-2.285,2.056-4.845,3.095-7.604,3.095c-4.958,0-8.567-3.377-10.851-5.914c-0.442-0.491-0.886-1.016-1.331-1.562
	c-3.255,2.036-6.057,2.993-8.825,3.093l-55.248,55.091c5.287,8.191,10.595,18.973,10.837,31.135
	c0.218,10.889-3.987,21.208-8.514,29.097l69.332,83.887c4.262,5.158,6.339,11.583,5.699,17.627
	c-0.518,4.878-2.794,9.139-6.413,11.998l-15.001,11.856c-3.001,2.371-6.696,3.624-10.686,3.624c-6.766,0-13.563-3.597-18.184-9.623
	l-59.774-77.866L236.622,288c0.001,0,0.001,0,0.001,0c-0.006,0-1.841-0.505-4.652-0.505c-5.013,0-12.454,1.261-19.435,7.473
	c-11.747,10.454-11.783,25.729-11.781,25.882l0.024,3.669l-2.747,2.492l-11.976,10.653l-2.735-1.096
	c-0.697,1.06-1.487,2.318-2.362,3.713c-8.78,13.998-25.122,40.052-57.359,41.608C122.469,381.944,121.322,381.971,120.187,381.971z"
	/>
<path d="M355.29,105.486c4.756-2.634,7.906-3.781,7.906-3.781c5.61-4.992,6.111-13.588,1.119-19.198l-9.546-10.728
	c-4.992-5.611-13.588-6.112-19.198-1.119c0,0-0.871,2.809-4.512,7.783c-1.361-2.517-3.377-5.379-5.244-7.453
	c-3.737-4.154-5.456-3.577-6.982-2.205c-1.526,1.373-2.281,3.022,1.456,7.176c2.064,2.294,5.063,4.868,7.595,6.485
	c-1.819,2.136-4.054,4.529-6.783,7.148c-1.351-2.402-3.233-5.048-4.988-7c-3.737-4.154-5.456-3.577-6.982-2.205
	c-1.526,1.373-2.281,3.022,1.456,7.176c1.771,1.968,4.229,4.138,6.491,5.739c-7.462,6.73-8.779,10.035-7.613,12.383l-68.053,57.355
	c-7.447-6.633-17.159-13.662-28.665-15.241c-1.517-0.208-3.056-0.306-4.607-0.306c-7.305,0-14.871,2.179-21.689,5.242
	l-23.475-28.403c8.22-6.464,19.025-11.577,27.731-14.943c4.387-1.703,8.243-2.981,10.981-3.826c1.369-0.423,2.459-0.737,3.197-0.944
	c0.369-0.103,0.65-0.18,0.834-0.229l0.202-0.054l0.044-0.012l0.005-0.001v0l4.948-1.266l-0.691-5.061
	c-0.045-0.322-0.826-5.869-3.863-14.236c-3.037-8.363-8.337-19.554-17.439-31.073c-9.103-11.517-18.766-19.26-26.201-24.148
	c-7.438-4.888-12.655-6.931-12.957-7.049l-4.937-1.909l-2.294,4.771l0,0c-0.084,0.177-2.875,5.897-7.959,13.361
	c-5.076,7.467-12.466,16.66-21.539,23.819l-0.053,0.042c-1.179-0.194-2.37-0.3-3.565-0.301c-4.428-0.009-8.945,1.398-12.661,4.342
	l-2.961,2.34c-2.576,2.033-4.541,4.62-5.827,7.447c-1.068,2.343-1.656,4.85-1.836,7.391l-0.073,0.057
	c-9.205,7.286-19.897,12.279-28.244,15.372c-4.173,1.55-7.756,2.632-10.27,3.321c-1.257,0.344-2.246,0.59-2.909,0.747
	c-0.331,0.078-0.58,0.135-0.74,0.17l-0.172,0.037l-0.034,0.007l0,0l-5.247,1.079l0.725,5.309c0.045,0.322,0.826,5.869,3.863,14.236
	c3.037,8.363,8.337,19.554,17.439,31.073c9.103,11.517,18.766,19.26,26.201,24.148c7.438,4.888,12.655,6.931,12.957,7.049
	l4.814,1.861l2.352-4.593c0.027-0.055,3.105-6.026,8.292-13.614c5.178-7.597,12.521-16.801,20.717-23.258l0.704-0.557
	c0.789,0.087,1.583,0.136,2.378,0.137c0.505,0.001,1.01-0.022,1.516-0.058l20.825,27.158c-1.143,0.88-2.525,1.163-3.821,1.163
	c-2.255,0-4.246-0.846-4.246-0.846l-5.499,4.893c0,0,2.373,17.062-12.494,30.291c-10.73,9.548-23.448,10.877-29.695,10.877
	c-2.408,0-3.853-0.197-3.853-0.197l-8.293,7.379c0,0,0.436,4.424-3.337,6.451c-11.321,6.083-43.781,16.99-48.961,48.932
	c-6.339,39.091,31.945,92.424,79.159,92.424c1.004,0,2.007-0.024,3.019-0.073c32.322-1.559,46.873-32.473,54.23-43.01
	c1.526-2.186,3.826-2.599,5.345-2.599c0.921,0,1.555,0.152,1.555,0.152l8.293-7.379c0,0-0.362-18.852,14.505-32.081
	c8.977-7.988,18.612-9.571,24.837-9.571c4.084,0,6.7,0.681,6.7,0.681l2.959-2.633l64.735,84.42c4.8,6.26,12.637,8.319,17.384,4.568
	l15.002-11.856c4.778-3.776,4.547-11.952-0.512-18.073l-73.053-88.39c5.796-8.63,10.58-19.341,10.375-29.61
	c-0.252-12.617-7.116-23.852-13.248-32.268l63.088-62.909c2.313,1.558,5.798,0.735,13.444-6.028
	c1.358,2.609,3.482,5.663,5.448,7.848c3.737,4.154,5.456,3.577,6.982,2.205c1.526-1.373,2.281-3.022-1.456-7.176
	c-1.929-2.144-4.674-4.529-7.091-6.154c2.921-2.332,5.738-4.29,8.301-5.905c1.314,2.754,3.668,6.205,5.827,8.605
	c3.737,4.154,5.456,3.577,6.982,2.205c1.526-1.373,2.281-3.022-1.456-7.176C360.454,109.497,357.708,107.111,355.29,105.486z"/>
<path d="M338.751,354.465l-15.002,11.856c-4.747,3.751-12.584,1.692-17.384-4.568L132.52,135.042
	c-4.673-6.094-4.714-13.896-0.094-17.548l6.818-5.388c4.589-3.627,12.108-1.835,16.966,4.043l182.029,220.243
	C343.298,342.513,343.529,350.689,338.751,354.465z"/>
<path style="fill:#FFFFFF;stroke:#000000;stroke-width:8;stroke-miterlimit:10;" d="M204.549,98.774c0,0-27.338,6.997-45.322,21.209
	c-3.789-4.795-29.874-37.803-42.637-53.952c19.782-15.634,31.11-39.193,31.11-39.193s19.426,7.511,36.729,29.406
	S204.549,98.774,204.549,98.774z"/>
<path style="fill:#FFFFFF;stroke:#000000;stroke-width:8;stroke-miterlimit:10;" d="M101.696,180.056
	c0,0,12.571-24.542,30.555-38.754c-3.789-4.795-29.874-37.803-42.637-53.952c-19.782,15.634-44.767,20.77-44.767,20.77
	s2.818,20.636,20.12,42.531S101.696,180.056,101.696,180.056z"/>
<path style="fill:#FFFFFF;stroke:#000000;stroke-width:5;stroke-miterlimit:10;" d="M150.772,133.968l-2.961,2.34
	c-6.632,5.241-16.704,3.546-22.498-3.786L96.015,95.449c-5.794-7.332-5.115-17.523,1.517-22.764l2.961-2.34
	c6.632-5.241,16.704-3.546,22.498,3.786l29.298,37.073C158.083,118.536,157.404,128.728,150.772,133.968z"/>
<g>
	<path d="M253.752,174.656c-0.871-1.18-1.386-1.826-1.386-1.826l-0.305,0.276c-7.341-6.606-21.076-22.802-39.315-25.305
		c-21.334-2.928-46.943,15.942-49.824,22.454c-2.491,5.63-9.762,2.54-9.762,2.54l-5.499,4.893c0,0,2.373,17.062-12.494,30.291
		c-14.867,13.229-33.548,10.679-33.548,10.679l-8.293,7.379c0,0,0.436,4.424-3.337,6.451c-11.321,6.082-43.781,16.99-48.961,48.932
		c-6.473,39.922,33.588,94.695,82.178,92.352c32.322-1.559,46.873-32.473,54.23-43.01c2.452-3.512,6.9-2.447,6.9-2.447l8.293-7.379
		c0,0-0.362-18.852,14.505-32.081c14.867-13.229,31.537-8.889,31.537-8.889l5.499-4.893c0,0-2.353-7.725,3.528-9.545
		c6.802-2.105,28.292-25.605,27.863-47.134c-0.367-18.406-14.808-33.874-20.516-41.933l0.334-0.243
		C255.379,176.217,254.822,175.658,253.752,174.656z"/>
</g>
<polygon style="fill:#FFFFFF;" points="122.752,316.051 67.523,353.742 54.725,339.359 99.999,290.482 "/>
<path d="M364.314,82.507l-9.546-10.728c-4.992-5.61-13.588-6.112-19.198-1.119c0,0-2.63,8.521-18.007,22.204
	c-7.905,7.034-9.29,10.424-8.099,12.823l-120.9,101.895l24.556,27.596l112.281-111.962c2.334,1.572,5.856,0.728,13.648-6.205
	c12.407-11.04,24.146-15.305,24.146-15.305C368.806,96.713,369.307,88.118,364.314,82.507z"/>
<g>
	<path style="fill:#FFFFFF;" d="M122.053,264.135c-0.293-0.012-0.469-0.019,0.031,0.004c1.156,0.047,0.5,0.018,0.031-0.001
		c1.767,0.067,9.145-1.241,10.232-3.006c1.331-2.162,0.721-4.954-1.362-6.236c-2.083-1.282-4.85-0.568-6.181,1.594
		c-0.332,0.54-0.543,1.119-0.641,1.704c-1.516,0.474-3.286,0.936-5.489-1.46c-4.041-4.393,16.691-11.07,22.612-13.14
		c7.324-2.561,15.703-4.538,22.276-8.818c9.767-6.406,6.344-19.626-2.66-20.055c-1.512-0.072-7.913,1.782-8.771,3.177
		c-1.331,2.162-0.721,4.954,1.362,6.236c2.083,1.282,4.85,0.568,6.181-1.594l0.056-0.115c1.605-0.636,3.597-2.23,4.806-1.496
		c2.164,6.163-9.345,9.697-14.018,11.37c-7.753,2.776-15.577,5.359-23.304,8.207c-4.512,1.663-9.515,4.044-12.15,8.292
		C111.408,254.701,114.556,263.774,122.053,264.135z"/>
</g>
<g>
	<path style="fill:#FFFFFF;" d="M200.996,259.748c0.022-0.292,0.036-0.468,0,0.031c-0.088,1.154-0.04,0.499-0.005,0.031
		c-0.139,1.763-2.295,8.939-4.174,9.813c-2.302,1.071-5.005,0.14-6.036-2.077c-1.031-2.218-0.001-4.883,2.301-5.954
		c0.575-0.267,1.174-0.409,1.766-0.438c0.647-1.451,1.311-3.155-0.812-5.622c-3.894-4.524-12.934,15.291-15.679,20.932
		c-3.395,6.977-6.332,15.069-11.347,21.101c-7.497,8.956-20.23,4.02-19.61-4.972c0.104-1.51,2.689-7.652,4.174-8.342
		c2.302-1.07,5.004-0.14,6.036,2.077c1.031,2.218,0.001,4.883-2.301,5.954l-0.12,0.042c-0.818,1.52-2.633,3.314-2.045,4.6
		c5.869,2.866,10.717-8.155,12.922-12.602c3.658-7.378,7.132-14.849,10.859-22.193c2.176-4.288,5.122-8.981,9.648-11.105
		C192.862,248.08,201.508,252.261,200.996,259.748z"/>
</g>
<path d="M349.819,120.065c3.737,4.154,2.982,5.803,1.456,7.176c-1.526,1.373-3.245,1.95-6.982-2.205
	c-3.737-4.154-8.076-11.466-6.55-12.839C339.269,110.825,346.082,115.911,349.819,120.065z"/>
<path d="M362.382,111.641c3.737,4.154,2.982,5.803,1.456,7.176c-1.526,1.373-3.245,1.95-6.982-2.205s-8.076-11.466-6.55-12.839
	C351.832,102.401,358.646,107.487,362.382,111.641z"/>
<path d="M316.112,82.595c-3.737-4.154-5.456-3.577-6.982-2.205c-1.526,1.373-2.281,3.022,1.456,7.176
	c3.737,4.154,10.55,9.24,12.076,7.868C324.188,94.061,319.849,86.749,316.112,82.595z"/>
<path d="M325.814,70.99c-3.737-4.154-5.456-3.577-6.982-2.205c-1.526,1.373-2.281,3.022,1.456,7.176
	c3.737,4.154,10.55,9.24,12.076,7.868C333.89,82.456,329.551,75.144,325.814,70.99z"/>
<path style="fill:#FFFFFF;" d="M194.284,207.992l120.16-101.271l-1.341-2.7c0.098-0.479,0.882-2.619,7.119-8.169
	c12.978-11.548,17.377-19.697,18.693-22.761c1.644-1.211,3.634-1.871,5.689-1.871c2.74,0,5.355,1.173,7.175,3.218l9.547,10.728
	c1.704,1.915,2.561,4.379,2.411,6.939c-0.136,2.339-1.098,4.501-2.724,6.158c-2.979,1.205-13.527,5.885-24.624,15.759
	c-6.274,5.584-8.413,5.867-8.777,5.867l-2.729-1.838l-2.306,2.333L213.294,229.355L194.284,207.992z"/>
</svg>
